<svg xmlns="http://www.w3.org/2000/svg" version="1.1" viewBox="0 0 48 60" x="0px" y="0px"><path d="m7 2v44h34v-33h-11v-1-10h-23zm24 0v10h10l-10-10zm-8.523438 14c1.066666 0 1.904297 0.837631 1.904297 1.904297v1.142578h3.046875c0.838096 0 1.525391 0.687295 1.525391 1.525391v3.046875h1.142578c1.066667 0 1.904297 0.83763 1.904297 1.904297 0 1.066665-0.83763 1.904296-1.904297 1.904296h-1.142578v3.048828c0 0.838094-0.687295 1.523438-1.525391 1.523438h-2.894531v-1.142578c0-1.142857-0.913785-2.056641-2.056641-2.056641-1.142859 0-2.05664 0.913784-2.05664 2.056641v1.142578h-2.896484c-0.838095 0-1.523438-0.685343-1.523438-1.523438v-2.896484h1.142578c1.142856 0 2.056641-0.913784 2.056641-2.05664 0-1.142858-0.913785-2.056641-2.056641-2.056641h-1.142578v-2.894531c0-0.838096 0.685343-1.525391 1.523438-1.525391h3.048828v-1.142578c0-1.066666 0.837629-1.904297 1.904296-1.904297z" style="paint-order:fill markers stroke;" fill="#000000"/><text x="0" y="63" fill="#000000" font-size="5px" font-weight="bold" font-family="'Helvetica Neue', Helvetica, Arial-Unicode, Arial, Sans-serif">Created by Frey Wazza</text><text x="0" y="68" fill="#000000" font-size="5px" font-weight="bold" font-family="'Helvetica Neue', Helvetica, Arial-Unicode, Arial, Sans-serif">from the Noun Project</text></svg>